<svg xmlns="http://www.w3.org/2000/svg" width="57.273" height="57.273" viewBox="0 0 57.273 57.273"><defs><style>.a{fill:#fff;}</style></defs><path class="a" d="M28.637,0A28.637,28.637,0,1,0,57.273,28.637,28.638,28.638,0,0,0,28.637,0ZM43.112,23.017c.437,9.641-6.753,20.389-19.482,20.389a19.393,19.393,0,0,1-10.5-3.081,13.79,13.79,0,0,0,10.147-2.837,6.87,6.87,0,0,1-6.405-4.761,6.874,6.874,0,0,0,3.1-.117,6.864,6.864,0,0,1-5.5-6.808,6.838,6.838,0,0,0,3.1.857,6.865,6.865,0,0,1-2.121-9.152,19.456,19.456,0,0,0,14.127,7.162,6.86,6.86,0,0,1,11.681-6.252,13.672,13.672,0,0,0,4.353-1.663A6.882,6.882,0,0,1,42.6,20.544a13.674,13.674,0,0,0,3.935-1.081A13.758,13.758,0,0,1,43.112,23.017Z"/></svg>