<?xml version="1.0" encoding="UTF-8"?><svg id="Layer_2" xmlns="http://www.w3.org/2000/svg" viewBox="0 0 132.48 67.85"><defs><style>.cls-1{fill:#38023b;}</style></defs><g id="Layer_1-2"><g><path class="cls-1" d="M122.45,67.84c-18.85-15.94-37.47-31.69-56.33-47.63-18.68,15.8-37.31,31.55-56.33,47.64-3.34-3.91-6.62-7.74-9.79-11.44C.92,53.95,61.95,2.97,65.89,0c2.48,1.1,62.36,51.57,66.59,56.18-3.2,3.72-6.42,7.47-10.03,11.67Z"/><path class="cls-1" d="M97.6,14.12h15.66c.91,2.78,1.15,16.64,.41,22.68-.91-.49-1.81-.8-2.5-1.38-3.82-3.18-7.55-6.46-11.4-9.61-1.92-1.57-2.73-3.42-2.47-5.86,.2-1.92,.21-3.85,.31-5.83Z"/></g></g></svg>