<?xml version="1.0" encoding="UTF-8"?><svg id="Layer_2" xmlns="http://www.w3.org/2000/svg" viewBox="0 0 421.58 421.58"><g id="Layer_1-2"><path d="M61.67,61.67c-82.23,82.23-82.23,216.02,0,298.24,82.23,82.23,216.02,82.23,298.24,0,82.23-82.23,82.23-216.02,0-298.24s-216.02-82.23-298.24,0Zm222.9-18.22l-21.83,49.51c-33.01-14.51-70.9-14.51-103.91,0l-21.83-49.51c46.88-20.6,100.69-20.6,147.57,0Zm-2.52,238.6c-39.29,39.29-103.23,39.29-142.52,0-39.29-39.29-39.29-103.23,0-142.52,39.29-39.29,103.23-39.29,142.52,0,39.29,39.29,39.29,103.23,0,142.52ZM43.45,137.01l49.51,21.83c-14.52,33.03-14.51,70.96,.04,103.99l-49.51,21.83c-20.64-46.9-20.65-100.75-.04-147.65Zm93.68,241.18l21.83-49.51c33.03,14.48,70.95,14.44,103.95-.12l21.83,49.51c-46.87,20.66-100.71,20.7-147.61,.12Zm241.06-93.73l-49.51-21.83c14.47-33.01,14.44-70.88-.08-103.87l49.51-21.83c20.62,46.86,20.65,100.65,.08,147.53Z"/></g></svg>