<?xml version="1.0" encoding="UTF-8"?><svg id="Layer_2" xmlns="http://www.w3.org/2000/svg" viewBox="0 0 307.55 461.33"><defs><style>.cls-1{fill-rule:evenodd;}</style></defs><g id="Layer_1-2"><path class="cls-1" d="M153.78,0c38.6,.04,70.97,22.64,91.61,49.9,15.17,20.03,23.89,39.71,23.72,65.43-.04,6.05-.73,12.4-1.77,19.22-4.63,30.76-28.68,74.93-60.45,121.71,36.91,44.94,76.04,85.27,100.67,108.95l-38.44,96.11c-28.95-29.49-73.29-79.23-115.33-132.81-42.04,53.57-86.38,103.32-115.33,132.81L0,365.22c24.62-23.68,63.76-64.01,100.67-108.95-31.77-46.79-55.8-90.96-60.45-121.71-1.04-6.82-1.73-13.17-1.77-19.22-.15-25.72,8.55-45.4,23.72-65.43C82.81,22.64,115.2,.04,153.78,0Zm0,76.89c-35.33-.17-46.56,9.02-34,42.83,7.54,20.32,19.49,42.37,34,64.78,14.51-22.41,26.47-44.46,34-64.78,12.55-33.81,1.33-43-34-42.83Z"/></g></svg>