<svg xmlns="http://www.w3.org/2000/svg" viewBox="0 0 676.34 230.19"><defs><style>.cls-1{fill:#005270;}.cls-2{fill:#c7eafb;}.cls-3{fill:#8ed8f8;}.cls-4{fill:#44c8f5;}</style></defs><g id="Layer_2" data-name="Layer 2"><g id="quad"><path class="cls-1" d="M483.77,54.52a52.66,52.66,0,0,0-71.7,20.08L458,100.41Z"/><path class="cls-2" d="M503.85,126.22a52.64,52.64,0,0,0-20.08-71.7L458,100.41Z"/><path class="cls-3" d="M503.85,126.23h0L458,100.41,432.15,146.3A52.65,52.65,0,0,0,503.85,126.23Z"/><path class="cls-4" d="M412.07,74.6h0a52.64,52.64,0,0,0,20.08,71.7L458,100.41Z"/></g><g id="qc"><path d="M154.2,46.36a54.06,54.06,0,1,0,54.05,54.05A54.05,54.05,0,0,0,154.2,46.36Zm0,105.19a51.14,51.14,0,1,1,51.14-51.14A51.14,51.14,0,0,1,154.2,151.55Z"/><path d="M267.26,46.36a54.06,54.06,0,1,0,54.05,54.05A54.05,54.05,0,0,0,267.26,46.36Zm0,105.19a51.14,51.14,0,1,1,51.14-51.14A51.13,51.13,0,0,1,267.26,151.55Z"/><path d="M54.05,153.55A51.14,51.14,0,1,1,92.23,68.4l3-1a54.06,54.06,0,1,0-1.59,71.89l-2.68-1.41A51,51,0,0,1,54.05,153.55Z"/><path d="M572.06,151.55A51.14,51.14,0,1,1,610.24,66.4l3-1a54.06,54.06,0,1,0-1.59,71.89l-2.68-1.41A51,51,0,0,1,572.06,151.55Z"/><polygon points="340.32 154.47 337.41 154.47 337.41 1.83 340.32 0 340.32 154.47"/><path d="M512,100.41a54.1,54.1,0,1,0-15,37.32l10.82,10.82.76-3.35L499,135.57A53.8,53.8,0,0,0,512,100.41ZM458,151.55a51.16,51.16,0,1,1,39-18l-11.16-11.16L485,125.7l10,10A51,51,0,0,1,458,151.55Z"/><path d="M548.67,214.44a16.69,16.69,0,1,1,12.45-27.78l1-.34a17.64,17.64,0,1,0-.52,23.45l-.88-.46A16.61,16.61,0,0,1,548.67,214.44Z"/><path d="M624.4,214.44a16.69,16.69,0,1,1,12.46-27.78l1-.34a17.64,17.64,0,1,0-.52,23.45l-.87-.46A16.62,16.62,0,0,1,624.4,214.44Z"/><polygon points="570.02 181.47 570.97 181.47 570.97 215.53 570.02 216.13 570.02 181.47"/><polygon points="599.92 181.47 600.88 181.47 600.88 215.53 599.92 216.13 599.92 181.47"/><path d="M620.43,196.93H642c0-.31,0-.63-.07-1a17.64,17.64,0,1,0-21.5,19l0-1a16.68,16.68,0,1,1,18.44-24.54A16.4,16.4,0,0,1,641,196H619.83Z"/><polygon points="591.65 189.47 592.25 190.42 578.91 190.42 578.32 189.47 591.65 189.47"/><polygon points="398.44 197.47 397.49 197.47 397.49 179.8 398.44 179.2 398.44 197.47"/><polygon points="432.76 197.47 431.81 197.47 431.81 179.8 432.76 179.2 432.76 197.47"/><path d="M507.22,215V201.52a17.57,17.57,0,1,1,0-8.09V164.85l.95.6V215Zm-17.16-34.17a16.62,16.62,0,1,0,16.69,16.61A16.65,16.65,0,0,0,490.06,180.86Z"/><path d="M469.6,215V201.52a17.57,17.57,0,1,1,0-8.09V182l.95.59V215Zm-17.16-34.17a16.62,16.62,0,1,0,16.69,16.61A16.65,16.65,0,0,0,452.44,180.86Z"/><path d="M395.16,179.8v13.57a17.64,17.64,0,1,0,0,8.12v28.7l.95-.59V179.8ZM378,214.12a16.69,16.69,0,1,1,16.68-16.69A16.69,16.69,0,0,1,378,214.12Z"/><path d="M431.81,197.47a16.69,16.69,0,0,1-33.37,0h-.95a17.64,17.64,0,0,0,35.27,0Z"/><path d="M584.85,201c0-.15,0-.3,0-.44s0-.44,0-.55h0V167.26l-1,.59v32.69a17.72,17.72,0,0,0,1,5.71,17.21,17.21,0,0,0,8.73,9.87V215A16.35,16.35,0,0,1,584.85,201Z"/><path d="M658.71,197.52h0A16.68,16.68,0,0,1,642,214.21v.95a17.63,17.63,0,0,0,17.63-17.64h0a16.68,16.68,0,0,1,16.68-16.68v-1A17.63,17.63,0,0,0,658.71,197.52Z"/></g></g></svg>