<svg xmlns="http://www.w3.org/2000/svg" viewBox="0 0 1569.32 213.73"><defs><style>.cls-1{stroke:#000;stroke-miterlimit:10;stroke-width:2px;}</style></defs><g id="Layer_2" data-name="Layer 2"><g id="Layer_1-2" data-name="Layer 1"><path class="cls-1" d="M175.45,184a175,175,0,0,1-17.14-7.39q-8.55-4.22-17-9.5a89.21,89.21,0,0,1-49.84,14.57,90.39,90.39,0,0,1-35.37-6.91A89.17,89.17,0,0,1,27.28,155.5,90.17,90.17,0,0,1,8,126.8,89.09,89.09,0,0,1,1,91.55,89.16,89.16,0,0,1,8,56.2,90.38,90.38,0,0,1,56.28,8,89.32,89.32,0,0,1,91.54,1a89.84,89.84,0,0,1,90.55,90.34,86,86,0,0,1-4.52,27.86,80.25,80.25,0,0,1-13.22,24.27q6.85,3.08,13.5,5.6T191,153.5Zm-84-35.25a40.6,40.6,0,0,0,10.17-1.27A40.07,40.07,0,0,0,110.7,144q-7-5.91-13.33-12.24a154.2,154.2,0,0,1-11.7-13l15-18.15A189.53,189.53,0,0,0,132,126.48a50.55,50.55,0,0,0,9-16.14,58.31,58.31,0,0,0,3.1-19,66.46,66.46,0,0,0-3.86-23.06,54.93,54.93,0,0,0-10.89-18.21,48.75,48.75,0,0,0-16.65-11.92,52.24,52.24,0,0,0-21.17-4.22,51.94,51.94,0,0,0-21.05,4.22,49,49,0,0,0-16.71,12A54.86,54.86,0,0,0,42.84,68.38,66.85,66.85,0,0,0,39,91.55a67,67,0,0,0,3.81,23.11,53.54,53.54,0,0,0,10.83,18.1,48.48,48.48,0,0,0,16.65,11.82A52.72,52.72,0,0,0,91.44,148.75Z"/><path class="cls-1" d="M289.28,181.68q-33.73,0-51-16.41t-17.3-48.71V4.17H256.2V106.75q0,22.05,7.78,31.71t25.3,9.66q17.52,0,25.31-9.66t7.78-31.71V4.17h35.26V116.56q0,32.3-17.25,48.71T289.28,181.68Z"/><path class="cls-1" d="M381.24,178.3,453.39,4.17h32.76L558.2,178.3h-38L505,138.62H434.46L419.22,178.3Zm65.3-69.65H493L469.72,50.29Z"/><path class="cls-1" d="M584.86,178.3V4.17h49.3a93.82,93.82,0,0,1,35.58,6.65,89.09,89.09,0,0,1,28.79,18.57,86.12,86.12,0,0,1,19.26,27.76,84.45,84.45,0,0,1,6.91,34.19,84.39,84.39,0,0,1-26.06,61.9,88.9,88.9,0,0,1-28.84,18.47,95.27,95.27,0,0,1-35.64,6.59Zm35.26-30.6h10.12a58.9,58.9,0,0,0,22.52-4.23,53.65,53.65,0,0,0,29.82-29.7,58.53,58.53,0,0,0,4.25-22.54,58.21,58.21,0,0,0-4.25-22.42,54.67,54.67,0,0,0-11.86-17.94,53.73,53.73,0,0,0-18-11.88,59.08,59.08,0,0,0-22.52-4.22H620.12Z"/><path class="cls-1" d="M899.8,181.68a104,104,0,0,1-38.2-7,100.23,100.23,0,0,1-31.45-19.36,90.12,90.12,0,0,1-21.22-28.76,82.22,82.22,0,0,1-7.62-35.15A82.39,82.39,0,0,1,809,56.14a91,91,0,0,1,21.23-28.81A99.89,99.89,0,0,1,861.55,8a103.26,103.26,0,0,1,38-7,107.86,107.86,0,0,1,31.51,4.54,91.28,91.28,0,0,1,25.63,11.92l-15.24,29a55,55,0,0,0-17.74-8.76,75,75,0,0,0-21.87-3.17,68.93,68.93,0,0,0-24.76,4.33,61.36,61.36,0,0,0-19.81,12,54.84,54.84,0,0,0-13.11,18,53.6,53.6,0,0,0-4.68,22.37,53.6,53.6,0,0,0,4.68,22.37,54.84,54.84,0,0,0,13.11,18,61.36,61.36,0,0,0,19.81,12,68.93,68.93,0,0,0,24.76,4.33A75,75,0,0,0,923.74,145a55,55,0,0,0,17.74-8.76l15.24,29A90,90,0,0,1,931.58,177,106.15,106.15,0,0,1,899.8,181.68Z"/><path class="cls-1" d="M985.45,178.3V4.17h35.26V178.3Z"/><path class="cls-1" d="M1084.59,178.3v-144H1039.1V4.17h126.24V34.35h-45.6v144Z"/><path class="cls-1" d="M1194,178.3V4.17h35.26V178.3Z"/><path class="cls-1" d="M1278.31,178.3V4.17h99.9v30h-64.64V76h62v30h-62v42.32h64.64v30Z"/><path class="cls-1" d="M1468.1,181.68A93.49,93.49,0,0,1,1445,179a98.73,98.73,0,0,1-18.88-6.76,97,97,0,0,1-14.31-8.39,95.9,95.9,0,0,1-9.47-7.6L1420.44,128q3.58,3.06,8.59,6.86a94.2,94.2,0,0,0,11.21,7.23,72.39,72.39,0,0,0,13.44,5.7,51.31,51.31,0,0,0,15.4,2.27,36.25,36.25,0,0,0,13.44-2.32,20.6,20.6,0,0,0,9.2-6.92,18.79,18.79,0,0,0,3.37-11.45,19.73,19.73,0,0,0-2.72-10.6,26.61,26.61,0,0,0-8-7.92,87.65,87.65,0,0,0-12.95-7q-7.67-3.42-17.47-7.54a109,109,0,0,1-13.87-7.23,58.22,58.22,0,0,1-11.7-9.45,42.3,42.3,0,0,1-8.11-12.18,37.62,37.62,0,0,1-3-15.25A46.35,46.35,0,0,1,1421.41,33a51.06,51.06,0,0,1,11.81-16.36,57.82,57.82,0,0,1,18.29-11.4A63.59,63.59,0,0,1,1475.18,1a77.9,77.9,0,0,1,19.59,2.53,98.69,98.69,0,0,1,18.28,6.65,71.66,71.66,0,0,1,14.36,9L1512.72,46a60.64,60.64,0,0,0-10.61-7,65.48,65.48,0,0,0-12.62-5,49.31,49.31,0,0,0-13.55-1.9,29.65,29.65,0,0,0-13.12,2.64,20.43,20.43,0,0,0-8.27,7,17.41,17.41,0,0,0-2.88,9.77,14.17,14.17,0,0,0,1.9,7.54,17.21,17.21,0,0,0,5.39,5.39,53.27,53.27,0,0,0,8.38,4.32c3.26,1.37,6.86,2.83,10.77,4.38q12.63,5.17,22.86,10.24a86.05,86.05,0,0,1,17.52,11.24,42.37,42.37,0,0,1,11.16,14.4q3.86,8.24,3.86,19.63,0,16.68-8.22,28.6t-22.91,18.21Q1487.69,181.67,1468.1,181.68Z"/><path class="cls-1" d="M192.86,198.24a174,174,0,0,1-17.14-7.39q-8.55-4.22-17-9.49a89.32,89.32,0,0,1-49.85,14.56A90.46,90.46,0,0,1,73.47,189a89.44,89.44,0,0,1-55.06-83.22,89.16,89.16,0,0,1,7-35.35A90.29,90.29,0,0,1,73.69,22.21a89.32,89.32,0,0,1,35.26-7,89.84,89.84,0,0,1,90.55,90.34A86,86,0,0,1,195,133.44a80.42,80.42,0,0,1-13.22,24.28q6.86,3.06,13.49,5.59t13.17,4.43Zm-84-35.25A41.09,41.09,0,0,0,119,161.73a40.29,40.29,0,0,0,9.08-3.49q-7-5.91-13.33-12.24a157.74,157.74,0,0,1-11.7-13l15-18.15a190,190,0,0,0,31.35,25.85,50.53,50.53,0,0,0,9-16.14,58.31,58.31,0,0,0,3.11-19,66.23,66.23,0,0,0-3.87-23.06,54.6,54.6,0,0,0-10.88-18.2,48.78,48.78,0,0,0-16.65-11.93A52.24,52.24,0,0,0,109,48.17a52,52,0,0,0-21.06,4.22,49,49,0,0,0-16.7,12A54.91,54.91,0,0,0,60.25,82.63a66.52,66.52,0,0,0-3.86,23.16A67,67,0,0,0,60.2,128.9,53.52,53.52,0,0,0,71,147a48.16,48.16,0,0,0,16.66,11.82A52.68,52.68,0,0,0,108.84,163Z"/><path class="cls-1" d="M306.69,195.92q-33.74,0-51-16.41t-17.3-48.71V18.41h35.26V121q0,22,7.78,31.71t25.3,9.66q17.52,0,25.3-9.66T339.77,121V18.41H375V130.8q0,32.3-17.24,48.71T306.69,195.92Z"/><path class="cls-1" d="M398.65,192.54,470.8,18.41h32.76l72,174.13h-38l-15.24-39.68H451.86l-15.23,39.68Zm65.29-69.65h46.47L487.12,64.53Z"/><path class="cls-1" d="M602.26,192.54V18.41h49.3a93.87,93.87,0,0,1,35.59,6.65,89,89,0,0,1,28.78,18.57A86,86,0,0,1,735.2,71.39a84.62,84.62,0,0,1,6.91,34.19A84.34,84.34,0,0,1,716,167.48,88.8,88.8,0,0,1,687.2,186a95.2,95.2,0,0,1-35.64,6.59Zm35.26-30.6h10.12a59.1,59.1,0,0,0,22.53-4.22A53.63,53.63,0,0,0,700,128a58.51,58.51,0,0,0,4.24-22.53A58.26,58.26,0,0,0,700,83.05a54.67,54.67,0,0,0-11.86-17.94,53.83,53.83,0,0,0-18-11.88A59.1,59.1,0,0,0,647.64,49H637.52Z"/><path class="cls-1" d="M917.21,195.92a104,104,0,0,1-38.2-7,100.23,100.23,0,0,1-31.45-19.36,89.86,89.86,0,0,1-21.22-28.76,82.18,82.18,0,0,1-7.62-35.14,82.43,82.43,0,0,1,7.67-35.31,91.08,91.08,0,0,1,21.22-28.81A100,100,0,0,1,879,22.21a103.35,103.35,0,0,1,38-7,108.19,108.19,0,0,1,31.51,4.54,91.22,91.22,0,0,1,25.62,11.93l-15.23,29A55.11,55.11,0,0,0,941.15,52a75,75,0,0,0-21.88-3.17,69.13,69.13,0,0,0-24.75,4.33,61.49,61.49,0,0,0-19.81,12,54.84,54.84,0,0,0-13.11,18,55.8,55.8,0,0,0,0,44.74,54.74,54.74,0,0,0,13.11,18,61.15,61.15,0,0,0,19.81,12,68.91,68.91,0,0,0,24.75,4.33,75,75,0,0,0,21.88-3.17,55.11,55.11,0,0,0,17.74-8.76l15.23,29A90.57,90.57,0,0,1,949,191.28,106.45,106.45,0,0,1,917.21,195.92Z"/><path class="cls-1" d="M1002.85,192.54V18.41h35.27V192.54Z"/><path class="cls-1" d="M1102,192.54V48.59h-45.49V18.41h126.24V48.59h-45.6v144Z"/><path class="cls-1" d="M1211.37,192.54V18.41h35.26V192.54Z"/><path class="cls-1" d="M1295.71,192.54V18.41h99.91v30H1331v41.9h62v30h-62v42.32h64.65v30Z"/><path class="cls-1" d="M1485.51,195.92a93.38,93.38,0,0,1-23.07-2.69,98.73,98.73,0,0,1-18.88-6.76,98.35,98.35,0,0,1-23.78-16l18.06-28.29q3.6,3.06,8.6,6.86a92.18,92.18,0,0,0,11.21,7.23,71.82,71.82,0,0,0,13.44,5.7,51.26,51.26,0,0,0,15.4,2.27,36,36,0,0,0,13.44-2.32,20.57,20.57,0,0,0,9.19-6.92,18.79,18.79,0,0,0,3.38-11.45,19.73,19.73,0,0,0-2.72-10.6,26.72,26.72,0,0,0-8-7.92,88.19,88.19,0,0,0-13-7q-7.68-3.44-17.47-7.55a109.1,109.1,0,0,1-13.88-7.23,58.74,58.74,0,0,1-11.69-9.44,42.14,42.14,0,0,1-8.11-12.19,37.42,37.42,0,0,1-3-15.25,46.19,46.19,0,0,1,4.13-19.21,50.91,50.91,0,0,1,11.81-16.36,57.77,57.77,0,0,1,18.28-11.4,63.66,63.66,0,0,1,23.67-4.22,78.36,78.36,0,0,1,19.59,2.53,98.17,98.17,0,0,1,18.28,6.65,72,72,0,0,1,14.37,9L1530.13,60.2a60.64,60.64,0,0,0-10.61-7,66.48,66.48,0,0,0-12.63-5,49.26,49.26,0,0,0-13.55-1.9,29.57,29.57,0,0,0-13.11,2.64,20.3,20.3,0,0,0-8.27,7,17.37,17.37,0,0,0-2.88,9.76,14.17,14.17,0,0,0,1.9,7.54,17.1,17.1,0,0,0,5.39,5.39,52.84,52.84,0,0,0,8.38,4.32c3.26,1.37,6.85,2.84,10.77,4.38q12.63,5.18,22.85,10.24a86.41,86.41,0,0,1,17.53,11.24,42.25,42.25,0,0,1,11.15,14.41q3.87,8.22,3.86,19.63,0,16.66-8.21,28.6t-22.91,18.2Q1505.09,195.93,1485.51,195.92Z"/><path class="cls-1" d="M210.26,212.48a177.38,177.38,0,0,1-17.14-7.38q-8.53-4.23-17-9.5a89.21,89.21,0,0,1-49.84,14.56,90.21,90.21,0,0,1-35.37-6.91A89.48,89.48,0,0,1,35.81,120a89.16,89.16,0,0,1,7-35.35A90.35,90.35,0,0,1,91.1,36.45a89.46,89.46,0,0,1,35.26-7,89.83,89.83,0,0,1,90.54,90.34,86,86,0,0,1-4.51,27.86A80.23,80.23,0,0,1,199.16,172q6.85,3.06,13.5,5.59T225.83,182Zm-84-35.25a41.32,41.32,0,0,0,19.26-4.74q-7-5.91-13.33-12.25a157.74,157.74,0,0,1-11.7-13l15-18.15A190.51,190.51,0,0,0,166.84,155a50.71,50.71,0,0,0,9-16.15,58.26,58.26,0,0,0,3.1-19,66.5,66.5,0,0,0-3.86-23.06,54.76,54.76,0,0,0-10.88-18.2,48.72,48.72,0,0,0-16.66-11.93,54.91,54.91,0,0,0-42.22,0,49.13,49.13,0,0,0-16.71,12A54.89,54.89,0,0,0,77.66,96.87,66.52,66.52,0,0,0,73.79,120a67.07,67.07,0,0,0,3.81,23.12,53.63,53.63,0,0,0,10.83,18.1,48.48,48.48,0,0,0,16.65,11.82A52.72,52.72,0,0,0,126.25,177.23Z"/><path class="cls-1" d="M324.1,210.16q-33.74,0-51-16.41t-17.31-48.7V32.65H291V135.23q0,22.07,7.78,31.71t25.31,9.66q17.52,0,25.3-9.66t7.78-31.71V32.65h35.26v112.4q0,32.3-17.25,48.7T324.1,210.16Z"/><path class="cls-1" d="M416.05,206.78,488.21,32.65H521l72,174.13H555L539.79,167.1H469.27L454,206.78Zm65.3-69.65h46.47L504.53,78.77Z"/><path class="cls-1" d="M619.67,206.78V32.65H669a94.07,94.07,0,0,1,35.59,6.65,89.16,89.16,0,0,1,28.78,18.57A86.22,86.22,0,0,1,752.6,85.63a84.45,84.45,0,0,1,6.91,34.19,84.28,84.28,0,0,1-26.06,61.9,88.74,88.74,0,0,1-28.84,18.47A95,95,0,0,1,669,206.78Zm35.26-30.6h10.12A59.17,59.17,0,0,0,687.58,172a53.71,53.71,0,0,0,29.82-29.71,58.51,58.51,0,0,0,4.24-22.53,58.26,58.26,0,0,0-4.24-22.43,54.7,54.7,0,0,0-11.87-17.94,53.52,53.52,0,0,0-17.95-11.87,59,59,0,0,0-22.53-4.22H654.93Z"/><path class="cls-1" d="M934.61,210.16a104.15,104.15,0,0,1-38.19-7A100.48,100.48,0,0,1,865,183.83a90.16,90.16,0,0,1-21.22-28.76,82.17,82.17,0,0,1-7.61-35.14,82.24,82.24,0,0,1,7.67-35.3A91,91,0,0,1,865,55.81a99.89,99.89,0,0,1,31.34-19.36,103.48,103.48,0,0,1,38-7A108.13,108.13,0,0,1,965.9,34,91.16,91.16,0,0,1,991.53,46L976.3,75a55.21,55.21,0,0,0-17.74-8.76A75.09,75.09,0,0,0,936.68,63a69.18,69.18,0,0,0-24.76,4.33,61.55,61.55,0,0,0-19.8,12,54.83,54.83,0,0,0-13.12,18,55.83,55.83,0,0,0,0,44.75,54.69,54.69,0,0,0,13.12,18,61.21,61.21,0,0,0,19.8,12,69,69,0,0,0,24.76,4.33,75.08,75.08,0,0,0,21.88-3.16,55.42,55.42,0,0,0,17.74-8.76l15.23,29a90.57,90.57,0,0,1-25.14,11.82A106.47,106.47,0,0,1,934.61,210.16Z"/><path class="cls-1" d="M1020.26,206.78V32.65h35.26V206.78Z"/><path class="cls-1" d="M1119.41,206.78V62.83h-45.49V32.65h126.24V62.83h-45.6v144Z"/><path class="cls-1" d="M1228.78,206.78V32.65H1264V206.78Z"/><path class="cls-1" d="M1313.12,206.78V32.65H1413v30h-64.64v41.9h62v30h-62v42.32H1413v30Z"/><path class="cls-1" d="M1502.92,210.16a93,93,0,0,1-23.08-2.69,98.35,98.35,0,0,1-42.66-22.74l18.07-28.29q3.59,3.08,8.6,6.86a90.25,90.25,0,0,0,11.21,7.23,71.82,71.82,0,0,0,13.44,5.7,50.9,50.9,0,0,0,15.4,2.27,36.12,36.12,0,0,0,13.44-2.32,20.55,20.55,0,0,0,9.19-6.91,18.81,18.81,0,0,0,3.37-11.45,19.67,19.67,0,0,0-2.72-10.61,26.68,26.68,0,0,0-8-7.92,88.78,88.78,0,0,0-13-7q-7.67-3.44-17.46-7.55a109.1,109.1,0,0,1-13.88-7.23,57.83,57.83,0,0,1-11.7-9.44,42.11,42.11,0,0,1-8.1-12.19,37.43,37.43,0,0,1-3-15.25,46.24,46.24,0,0,1,4.14-19.21A50.76,50.76,0,0,1,1468,45.1a57.57,57.57,0,0,1,18.28-11.39A63.39,63.39,0,0,1,1510,29.48,77.92,77.92,0,0,1,1529.58,32a97.72,97.72,0,0,1,18.28,6.65,71.14,71.14,0,0,1,14.37,9l-14.69,26.8a60.73,60.73,0,0,0-10.62-7,66.13,66.13,0,0,0-12.62-5,49.64,49.64,0,0,0-13.55-1.9,29.57,29.57,0,0,0-13.11,2.64,20.3,20.3,0,0,0-8.27,7,17.3,17.3,0,0,0-2.89,9.76,14.21,14.21,0,0,0,1.91,7.55,17.14,17.14,0,0,0,5.38,5.38,54.58,54.58,0,0,0,8.38,4.33q4.9,2.06,10.78,4.37,12.61,5.18,22.85,10.24A86.48,86.48,0,0,1,1553.3,123a42.41,42.41,0,0,1,11.16,14.41q3.86,8.24,3.86,19.63,0,16.66-8.22,28.6t-22.9,18.2Q1522.5,210.17,1502.92,210.16Z"/></g></g></svg>